<svg width="15" height="9" viewBox="0 0 15 9" fill="none" xmlns="http://www.w3.org/2000/svg">
<path d="M4.125 4.5C5.15883 4.5 6 3.65883 6 2.625C6 1.59117 5.15883 0.75 4.125 0.75C3.09117 0.75 2.25 1.59117 2.25 2.625C2.25 3.65883 3.09117 4.5 4.125 4.5ZM12.375 1.5H7.125C6.91781 1.5 6.75 1.66781 6.75 1.875V5.25H1.5V0.375C1.5 0.167812 1.33219 0 1.125 0H0.375C0.167812 0 0 0.167812 0 0.375V8.625C0 8.83219 0.167812 9 0.375 9H1.125C1.33219 9 1.5 8.83219 1.5 8.625V7.5H13.5V8.625C13.5 8.83219 13.6678 9 13.875 9H14.625C14.8322 9 15 8.83219 15 8.625V4.125C15 2.67516 13.8248 1.5 12.375 1.5Z" fill="white"/>
</svg>
