<svg width="15" height="12" viewBox="0 0 15 12" fill="none" xmlns="http://www.w3.org/2000/svg">
<path d="M11.8125 8.24941H3.19687C3.09375 8.24941 3.00937 8.33379 3.00937 8.43691L3.00703 9.56191C3.00703 9.66504 3.09141 9.74941 3.19453 9.74941H11.8125C11.9156 9.74941 12 9.66504 12 9.56191V8.43691C12 8.33379 11.9156 8.24941 11.8125 8.24941ZM11.8125 10.4994H3.18984C3.08672 10.4994 3.00234 10.5838 3.00234 10.6869L3 11.8119C3 11.915 3.08437 11.9994 3.1875 11.9994H11.8125C11.9156 11.9994 12 11.915 12 11.8119V10.6869C12 10.5838 11.9156 10.4994 11.8125 10.4994ZM11.8125 5.99942H3.20156C3.09844 5.99942 3.01406 6.08379 3.01406 6.18692L3.01172 7.31192C3.01172 7.41504 3.09609 7.49942 3.19922 7.49942H11.8125C11.9156 7.49942 12 7.41504 12 7.31192V6.18692C12 6.08379 11.9156 5.99942 11.8125 5.99942ZM14.3086 2.7416L7.93125 0.0861343C7.79417 0.02927 7.64723 0 7.49883 0C7.35043 0 7.20348 0.02927 7.06641 0.0861343L0.691406 2.7416C0.274219 2.91738 0 3.3252 0 3.77988V11.8119C0 11.915 0.084375 11.9994 0.1875 11.9994H2.0625C2.16563 11.9994 2.25 11.915 2.25 11.8119V5.99942C2.25 5.58692 2.59219 5.24942 3.01406 5.24942H11.9859C12.4078 5.24942 12.75 5.58692 12.75 5.99942V11.8119C12.75 11.915 12.8344 11.9994 12.9375 11.9994H14.8125C14.9156 11.9994 15 11.915 15 11.8119V3.77988C15 3.3252 14.7258 2.91738 14.3086 2.7416V2.7416Z" fill="white"/>
</svg>
