<svg width="15" height="12" viewBox="0 0 15 12" fill="none" xmlns="http://www.w3.org/2000/svg">
<path d="M9.75 7.5H10.875C11.0625 7.5 11.25 7.3125 11.25 7.125V3.1875C11.25 3 11.0625 2.8125 10.875 2.8125H9.75C9.5625 2.8125 9.375 3 9.375 3.1875V7.125C9.375 7.3125 9.5625 7.5 9.75 7.5ZM12.5625 7.5H13.6875C13.875 7.5 14.0625 7.3125 14.0625 7.125V0.375C14.0625 0.1875 13.875 0 13.6875 0H12.5625C12.375 0 12.1875 0.1875 12.1875 0.375V7.125C12.1875 7.3125 12.375 7.5 12.5625 7.5ZM4.125 7.5H5.25C5.4375 7.5 5.625 7.3125 5.625 7.125V5.0625C5.625 4.875 5.4375 4.6875 5.25 4.6875H4.125C3.9375 4.6875 3.75 4.875 3.75 5.0625V7.125C3.75 7.3125 3.9375 7.5 4.125 7.5ZM6.9375 7.5H8.0625C8.25 7.5 8.4375 7.3125 8.4375 7.125V1.3125C8.4375 1.125 8.25 0.9375 8.0625 0.9375H6.9375C6.75 0.9375 6.5625 1.125 6.5625 1.3125V7.125C6.5625 7.3125 6.75 7.5 6.9375 7.5ZM14.5312 9.375H1.875V0.46875C1.875 0.209766 1.66523 0 1.40625 0H0.46875C0.209766 0 0 0.209766 0 0.46875V10.3125C0 10.8302 0.419824 11.25 0.9375 11.25H14.5312C14.7902 11.25 15 11.0402 15 10.7812V9.84375C15 9.58477 14.7902 9.375 14.5312 9.375Z" fill="white"/>
</svg>
