<svg width="35" height="35" viewBox="0 0 35 35" fill="none" xmlns="http://www.w3.org/2000/svg">
<path d="M29.7578 5.08594C26.4844 1.80469 22.125 0 17.4922 0C7.92969 0 0.148438 7.78125 0.148438 17.3438C0.148438 20.3984 0.945312 23.3828 2.46094 26.0156L0 35L9.19531 32.5859C11.7266 33.9688 14.5781 34.6953 17.4844 34.6953H17.4922C27.0469 34.6953 35 26.9141 35 17.3516C35 12.7188 33.0312 8.36719 29.7578 5.08594ZM17.4922 31.7734C14.8984 31.7734 12.3594 31.0781 10.1484 29.7656L9.625 29.4531L4.17188 30.8828L5.625 25.5625L5.28125 25.0156C3.83594 22.7188 3.07812 20.0703 3.07812 17.3438C3.07812 9.39844 9.54688 2.92969 17.5 2.92969C21.3516 2.92969 24.9688 4.42969 27.6875 7.15625C30.4062 9.88281 32.0781 13.5 32.0703 17.3516C32.0703 25.3047 25.4375 31.7734 17.4922 31.7734ZM25.3984 20.9766C24.9688 20.7578 22.8359 19.7109 22.4375 19.5703C22.0391 19.4219 21.75 19.3516 21.4609 19.7891C21.1719 20.2266 20.3438 21.1953 20.0859 21.4922C19.8359 21.7812 19.5781 21.8203 19.1484 21.6016C16.6016 20.3281 14.9297 19.3281 13.25 16.4453C12.8047 15.6797 13.6953 15.7344 14.5234 14.0781C14.6641 13.7891 14.5937 13.5391 14.4844 13.3203C14.375 13.1016 13.5078 10.9688 13.1484 10.1016C12.7969 9.25781 12.4375 9.375 12.1719 9.35938C11.9219 9.34375 11.6328 9.34375 11.3438 9.34375C11.0547 9.34375 10.5859 9.45312 10.1875 9.88281C9.78906 10.3203 8.67188 11.3672 8.67188 13.5C8.67188 15.6328 10.2266 17.6953 10.4375 17.9844C10.6562 18.2734 13.4922 22.6484 17.8438 24.5312C20.5938 25.7188 21.6719 25.8203 23.0469 25.6172C23.8828 25.4922 25.6094 24.5703 25.9688 23.5547C26.3281 22.5391 26.3281 21.6719 26.2188 21.4922C26.1172 21.2969 25.8281 21.1875 25.3984 20.9766Z" fill="#25D366"/>
</svg>
