<svg width="30" height="31" viewBox="0 0 30 31" fill="none" xmlns="http://www.w3.org/2000/svg">
<path d="M2.00985 17.697L0.484425 16.1716C-0.161475 15.5257 -0.161475 14.4812 0.484425 13.8422L13.8353 0.484425C14.4812 -0.161475 15.5257 -0.161475 16.1647 0.484425L29.5156 13.8353C30.1615 14.4812 30.1615 15.5257 29.5156 16.1647L27.9902 17.6901C27.3374 18.3429 26.2723 18.3291 25.6333 17.6626L17.7519 9.3896V29.1377C17.7519 30.0515 17.0167 30.7868 16.1028 30.7868H13.904C12.9902 30.7868 12.2549 30.0515 12.2549 29.1377V9.3896L4.3667 17.6695C3.72767 18.3429 2.66262 18.3566 2.00985 17.697Z" fill="white"/>
</svg>
