<svg width="20" height="12" viewBox="0 0 20 12" fill="none" xmlns="http://www.w3.org/2000/svg">
<path d="M5.5 6C6.87844 6 8 4.87844 8 3.5C8 2.12156 6.87844 1 5.5 1C4.12156 1 3 2.12156 3 3.5C3 4.87844 4.12156 6 5.5 6ZM16.5 2H9.5C9.22375 2 9 2.22375 9 2.5V7H2V0.5C2 0.22375 1.77625 0 1.5 0H0.5C0.22375 0 0 0.22375 0 0.5V11.5C0 11.7762 0.22375 12 0.5 12H1.5C1.77625 12 2 11.7762 2 11.5V10H18V11.5C18 11.7762 18.2237 12 18.5 12H19.5C19.7763 12 20 11.7762 20 11.5V5.5C20 3.56687 18.4331 2 16.5 2Z" fill="black"/>
</svg>
