<svg width="30" height="40" viewBox="0 0 30 40" fill="none" xmlns="http://www.w3.org/2000/svg">
<path d="M29.4531 8.20312L21.8047 0.546875C21.4531 0.195312 20.9766 0 20.4766 0H20V10H30V9.52344C30 9.03125 29.8047 8.55469 29.4531 8.20312ZM17.5 10.625V0H1.875C0.835938 0 0 0.835938 0 1.875V38.125C0 39.1641 0.835938 40 1.875 40H28.125C29.1641 40 30 39.1641 30 38.125V12.5H19.375C18.3438 12.5 17.5 11.6562 17.5 10.625ZM5 5.625C5 5.27969 5.27969 5 5.625 5H11.875C12.2203 5 12.5 5.27969 12.5 5.625V6.875C12.5 7.22031 12.2203 7.5 11.875 7.5H5.625C5.27969 7.5 5 7.22031 5 6.875V5.625ZM5 11.875V10.625C5 10.2797 5.27969 10 5.625 10H11.875C12.2203 10 12.5 10.2797 12.5 10.625V11.875C12.5 12.2203 12.2203 12.5 11.875 12.5H5.625C5.27969 12.5 5 12.2203 5 11.875ZM16.25 32.4906V34.375C16.25 34.7203 15.9703 35 15.625 35H14.375C14.0297 35 13.75 34.7203 13.75 34.375V32.4773C12.868 32.432 12.0102 32.1242 11.2992 31.5906C10.9945 31.3617 10.9789 30.9055 11.2547 30.6422L12.1727 29.7664C12.3891 29.5602 12.7109 29.5508 12.9641 29.7094C13.2664 29.8984 13.6094 30 13.9656 30H16.1617C16.6695 30 17.0836 29.5375 17.0836 28.9695C17.0836 28.5047 16.8016 28.0953 16.3984 27.975L12.8828 26.9203C11.4305 26.4844 10.4156 25.0906 10.4156 23.5305C10.4156 21.6148 11.9039 20.0586 13.7492 20.0094V18.125C13.7492 17.7797 14.0289 17.5 14.3742 17.5H15.6242C15.9695 17.5 16.2492 17.7797 16.2492 18.125V20.0227C17.1313 20.068 17.9891 20.375 18.7 20.9094C19.0047 21.1383 19.0203 21.5945 18.7445 21.8578L17.8266 22.7336C17.6102 22.9398 17.2883 22.9492 17.0352 22.7906C16.7328 22.6008 16.3898 22.5 16.0336 22.5H13.8375C13.3297 22.5 12.9156 22.9625 12.9156 23.5305C12.9156 23.9953 13.1977 24.4047 13.6008 24.525L17.1164 25.5797C18.5688 26.0156 19.5836 27.4094 19.5836 28.9695C19.5836 30.8859 18.0953 32.4414 16.25 32.4906Z" fill="white"/>
</svg>
