<svg width="25" height="25" viewBox="0 0 25 25" fill="none" xmlns="http://www.w3.org/2000/svg">
<path d="M24.1071 21.4286H0.892857C0.656057 21.4286 0.428955 21.5226 0.261512 21.6901C0.0940686 21.8575 0 22.0846 0 22.3214L0 24.1071C0 24.3439 0.0940686 24.571 0.261512 24.7385C0.428955 24.9059 0.656057 25 0.892857 25H24.1071C24.3439 25 24.571 24.9059 24.7385 24.7385C24.9059 24.571 25 24.3439 25 24.1071V22.3214C25 22.0846 24.9059 21.8575 24.7385 21.6901C24.571 21.5226 24.3439 21.4286 24.1071 21.4286ZM24.1071 14.2857H0.892857C0.656057 14.2857 0.428955 14.3798 0.261512 14.5472C0.0940686 14.7147 0 14.9418 0 15.1786L0 16.9643C0 17.2011 0.0940686 17.4282 0.261512 17.5956C0.428955 17.7631 0.656057 17.8571 0.892857 17.8571H24.1071C24.3439 17.8571 24.571 17.7631 24.7385 17.5956C24.9059 17.4282 25 17.2011 25 16.9643V15.1786C25 14.9418 24.9059 14.7147 24.7385 14.5472C24.571 14.3798 24.3439 14.2857 24.1071 14.2857ZM24.1071 7.14286H0.892857C0.656057 7.14286 0.428955 7.23693 0.261512 7.40437C0.0940686 7.57181 0 7.79891 0 8.03571L0 9.82143C0 10.0582 0.0940686 10.2853 0.261512 10.4528C0.428955 10.6202 0.656057 10.7143 0.892857 10.7143H24.1071C24.3439 10.7143 24.571 10.6202 24.7385 10.4528C24.9059 10.2853 25 10.0582 25 9.82143V8.03571C25 7.79891 24.9059 7.57181 24.7385 7.40437C24.571 7.23693 24.3439 7.14286 24.1071 7.14286ZM24.1071 0H0.892857C0.656057 0 0.428955 0.0940686 0.261512 0.261512C0.0940686 0.428955 0 0.656057 0 0.892857L0 2.67857C0 2.91537 0.0940686 3.14247 0.261512 3.30992C0.428955 3.47736 0.656057 3.57143 0.892857 3.57143H24.1071C24.3439 3.57143 24.571 3.47736 24.7385 3.30992C24.9059 3.14247 25 2.91537 25 2.67857V0.892857C25 0.656057 24.9059 0.428955 24.7385 0.261512C24.571 0.0940686 24.3439 0 24.1071 0Z" fill="#2E0F59"/>
</svg>
