<svg width="20" height="15" viewBox="0 0 20 15" fill="none" xmlns="http://www.w3.org/2000/svg">
<path d="M13 10H14.5C14.75 10 15 9.75 15 9.5V4.25C15 4 14.75 3.75 14.5 3.75H13C12.75 3.75 12.5 4 12.5 4.25V9.5C12.5 9.75 12.75 10 13 10ZM16.75 10H18.25C18.5 10 18.75 9.75 18.75 9.5V0.5C18.75 0.25 18.5 0 18.25 0H16.75C16.5 0 16.25 0.25 16.25 0.5V9.5C16.25 9.75 16.5 10 16.75 10ZM5.5 10H7C7.25 10 7.5 9.75 7.5 9.5V6.75C7.5 6.5 7.25 6.25 7 6.25H5.5C5.25 6.25 5 6.5 5 6.75V9.5C5 9.75 5.25 10 5.5 10ZM9.25 10H10.75C11 10 11.25 9.75 11.25 9.5V1.75C11.25 1.5 11 1.25 10.75 1.25H9.25C9 1.25 8.75 1.5 8.75 1.75V9.5C8.75 9.75 9 10 9.25 10ZM19.375 12.5H2.5V0.625C2.5 0.279687 2.22031 0 1.875 0H0.625C0.279687 0 0 0.279687 0 0.625V13.75C0 14.4402 0.559766 15 1.25 15H19.375C19.7203 15 20 14.7203 20 14.375V13.125C20 12.7797 19.7203 12.5 19.375 12.5Z" fill="black"/>
</svg>
